<svg viewBox="0,0,928,500" width="928" font-family="sans-serif" text-anchor="middle" style="max-width: 100%; height: auto; height: intrinsic;" xmlns="http://www.w3.org/2000/svg" xmlns:xlink="http://www.w3.org/1999/xlink"><g transform="translate(0,0)"><text font-size="67" transform="translate(674,187) rotate(0)">spice</text><text font-size="42" transform="translate(569,284) rotate(0)">solar</text><text font-size="39" transform="translate(432,345) rotate(0)">snow</text><text font-size="36" transform="translate(506,197) rotate(0)">compound</text><text font-size="36" transform="translate(397,136) rotate(0)">like</text><text font-size="36" transform="translate(376,298) rotate(0)">power</text><text font-size="36" transform="translate(424,260) rotate(0)">one</text><text font-size="36" transform="translate(355,194) rotate(0)">world</text><text font-size="36" transform="translate(638,349) rotate(0)">ken</text><text font-size="33" transform="translate(263,253) rotate(0)">back</text><text font-size="33" transform="translate(662,308) rotate(0)">tpl</text><text font-size="33" transform="translate(261,325) rotate(0)">door</text><text font-size="33" transform="translate(322,349) rotate(0)">physical</text><text font-size="30" transform="translate(306,232) rotate(0)">ice</text><text font-size="30" transform="translate(348,276) rotate(0)">drives</text><text font-size="30" transform="translate(595,320) rotate(0)">rig</text><text font-size="30" transform="translate(369,371) rotate(0)">beneath</text><text font-size="30" transform="translate(470,130) rotate(0)">cold</text><text font-size="30" transform="translate(706,327) rotate(0)">across</text><text font-size="30" transform="translate(359,246) rotate(0)">every</text><text font-size="30" transform="translate(461,277) rotate(0)">needed</text><text font-size="30" transform="translate(568,164) rotate(0)">time</text><text font-size="30" transform="translate(545,320) rotate(0)">room</text><text font-size="30" transform="translate(467,377) rotate(0)">unironic</text><text font-size="25" transform="translate(235,365) rotate(0)">eyes</text><text font-size="25" transform="translate(536,216) rotate(0)">gray</text><text font-size="25" transform="translate(375,318) rotate(0)">frozen</text><text font-size="25" transform="translate(446,320) rotate(0)">broom</text><text font-size="25" transform="translate(552,258) rotate(0)">even</text><text font-size="25" transform="translate(644,216) rotate(0)">much</text><text font-size="25" transform="translate(399,218) rotate(0)">pulled</text><text font-size="25" transform="translate(250,228) rotate(0)">heavy</text><text font-size="25" transform="translate(525,340) rotate(0)">white</text><text font-size="25" transform="translate(651,282) rotate(0)">parka</text><text font-size="25" transform="translate(368,151) rotate(0)">tunnels</text><text font-size="25" transform="translate(461,298) rotate(0)">right</text><text font-size="25" transform="translate(548,140) rotate(0)">years</text><text font-size="25" transform="translate(495,176) rotate(0)">now</text><text font-size="25" transform="translate(380,390) rotate(0)">came</text><text font-size="25" transform="translate(284,133) rotate(0)">heat</text><text font-size="25" transform="translate(538,358) rotate(0)">last</text><text font-size="25" transform="translate(468,402) rotate(0)">massive</text><text font-size="25" transform="translate(689,137) rotate(0)">toward</text><text font-size="25" transform="translate(585,343) rotate(0)">four</text><text font-size="25" transform="translate(632,148) rotate(0)">slid</text><text font-size="25" transform="translate(696,217) rotate(0)">find</text><text font-size="25" transform="translate(281,382) rotate(0)">really</text><text font-size="25" transform="translate(487,240) rotate(0)">logged</text><text font-size="25" transform="translate(612,236) rotate(0)">couple</text><text font-size="25" transform="translate(601,258) rotate(0)">two</text><text font-size="25" transform="translate(325,406) rotate(0)">mech</text><text font-size="25" transform="translate(679,118) rotate(0)">metaverse</text><text font-size="25" transform="translate(263,271) rotate(0)">missed</text><text font-size="25" transform="translate(776,206) rotate(0)">paradigm</text><text font-size="21" transform="translate(581,120) rotate(0)">job</text><text font-size="21" transform="translate(292,297) rotate(0)">ground</text><text font-size="21" transform="translate(603,365) rotate(0)">blocking</text><text font-size="21" transform="translate(431,151) rotate(0)">way</text><text font-size="21" transform="translate(527,299) rotate(0)">week</text><text font-size="21" transform="translate(433,174) rotate(0)">outside</text><text font-size="21" transform="translate(251,154) rotate(0)">usual</text><text font-size="21" transform="translate(220,289) rotate(0)">seemed</text><text font-size="21" transform="translate(226,341) rotate(0)">storm</text><text font-size="21" transform="translate(332,171) rotate(0)">waited</text><text font-size="21" transform="translate(426,235) rotate(0)">ever</text><text font-size="21" transform="translate(689,231) rotate(0)">come</text><text font-size="21" transform="translate(746,144) rotate(0)">get</text><text font-size="21" transform="translate(283,207) rotate(0)">jabbed</text><text font-size="21" transform="translate(669,262) rotate(0)">entrance</text><text font-size="21" transform="translate(688,102) rotate(0)">never</text><text font-size="21" transform="translate(472,154) rotate(0)">drifts</text><text font-size="21" transform="translate(581,384) rotate(0)">especially</text><text font-size="21" transform="translate(497,352) rotate(0)">bad</text><text font-size="21" transform="translate(315,321) rotate(0)">hole</text><text font-size="21" transform="translate(461,216) rotate(0)">large</text><text font-size="21" transform="translate(188,321) rotate(0)">enough</text><text font-size="21" transform="translate(452,421) rotate(0)">bright</text><text font-size="21" transform="translate(187,365) rotate(0)">dark</text><text font-size="21" transform="translate(727,246) rotate(0)">crisp</text><text font-size="21" transform="translate(636,327) rotate(0)">air</text><text font-size="21" transform="translate(665,367) rotate(0)">wind</text><text font-size="21" transform="translate(721,304) rotate(0)">goggles</text><text font-size="21" transform="translate(317,420) rotate(0)">beyond</text><text font-size="21" transform="translate(550,403) rotate(0)">since</text><text font-size="21" transform="translate(697,280) rotate(0)">left</text><text font-size="21" transform="translate(771,126) rotate(0)">move</text><text font-size="21" transform="translate(290,186) rotate(0)">fast</text><text font-size="21" transform="translate(230,386) rotate(0)">met</text><text font-size="21" transform="translate(380,108) rotate(0)">however</text><text font-size="21" transform="translate(591,103) rotate(0)">knew</text><text font-size="21" transform="translate(537,122) rotate(0)">made</text><text font-size="21" transform="translate(612,87) rotate(0)">almost</text><text font-size="21" transform="translate(671,387) rotate(0)">cloaking</text><text font-size="21" transform="translate(552,422) rotate(0)">making</text><text font-size="21" transform="translate(459,105) rotate(0)">netting</text><text font-size="21" transform="translate(460,87) rotate(0)">production</text><text font-size="21" transform="translate(617,303) rotate(0)">70%</text><text font-size="21" transform="translate(715,346) rotate(0)">efficiency</text><text font-size="21" transform="translate(507,159) rotate(0)">lot</text><text font-size="21" transform="translate(234,182) rotate(0)">spotting</text><text font-size="21" transform="translate(391,88) rotate(0)">sky</text><text font-size="21" transform="translate(221,140) rotate(0)">crawled</text><text font-size="21" transform="translate(197,273) rotate(0)">work</text><text font-size="21" transform="translate(587,215) rotate(0)">night</text><text font-size="21" transform="translate(347,131) rotate(0)">drive</text><text font-size="21" transform="translate(180,255) rotate(0)">cleaned</text><text font-size="21" transform="translate(490,439) rotate(0)">checked</text><text font-size="21" transform="translate(530,104) rotate(0)">running</text><text font-size="21" transform="translate(173,236) rotate(0)">exhaust</text><text font-size="21" transform="translate(303,156) rotate(0)">ports</text><text font-size="21" transform="translate(347,207) rotate(0)">go</text><text font-size="21" transform="translate(221,199) rotate(0)">hours</text><text font-size="21" transform="translate(677,246) rotate(0)">home</text><text font-size="21" transform="translate(547,236) rotate(0)">later</text><text font-size="21" transform="translate(394,407) rotate(0)">day</text><text font-size="21" transform="translate(598,142) rotate(0)">fun</text><text font-size="21" transform="translate(164,214) rotate(0)">stripped</text><text font-size="21" transform="translate(768,228) rotate(0)">stomped</text><text font-size="21" transform="translate(658,405) rotate(0)">somewhere</text><text font-size="21" transform="translate(247,401) rotate(0)">systems</text><text font-size="21" transform="translate(391,424) rotate(0)">open</text><text font-size="21" transform="translate(158,296) rotate(0)">still</text><text font-size="21" transform="translate(365,443) rotate(0)">electronic</text><text font-size="21" transform="translate(744,281) rotate(0)">corner</text><text font-size="21" transform="translate(547,74) rotate(0)">meters</text><text font-size="21" transform="translate(723,367) rotate(0)">matter</text><text font-size="21" transform="translate(566,298) rotate(0)">cot</text><text font-size="21" transform="translate(167,193) rotate(0)">entire</text><text font-size="21" transform="translate(135,274) rotate(0)">space</text><text font-size="21" transform="translate(474,69) rotate(0)">save</text><text font-size="21" transform="translate(155,345) rotate(0)">flashed</text><text font-size="21" transform="translate(305,109) rotate(0)">green</text><text font-size="21" transform="translate(204,168) rotate(0)">fired</text><text font-size="21" transform="translate(407,458) rotate(0)">command</text><text font-size="21" transform="translate(327,88) rotate(0)">screens</text><text font-size="21" transform="translate(114,259) rotate(0)">giant</text><text font-size="21" transform="translate(177,381) rotate(0)">street</text><text font-size="21" transform="translate(762,259) rotate(0)">pilot</text><text font-size="21" transform="translate(349,226) rotate(0)">oh</text><text font-size="21" transform="translate(232,120) rotate(0)">little</text><text font-size="21" transform="translate(813,179) rotate(0)">cyberbroker</text><text font-size="21" transform="translate(775,160) rotate(0)">ten</text><text font-size="21" transform="translate(82,235) rotate(0)">thousand</text><text font-size="21" transform="translate(382,67) rotate(0)">permanently</text><text font-size="21" transform="translate(389,53) rotate(0)">human</text><text font-size="21" transform="translate(250,96) rotate(0)">bodies</text><text font-size="21" transform="translate(801,248) rotate(0)">ago</text><text font-size="21" transform="translate(799,273) rotate(0)">first</text><text font-size="21" transform="translate(103,310) rotate(0)">humanity</text><text font-size="21" transform="translate(647,72) rotate(0)">everyone</text><text font-size="21" transform="translate(147,169) rotate(0)">called</text><text font-size="21" transform="translate(623,422) rotate(0)">instead</text><text font-size="21" transform="translate(573,59) rotate(0)">meatball</text><text font-size="21" transform="translate(712,85) rotate(0)">everything</text><text font-size="15" transform="translate(219,301) rotate(0)">hate</text><text font-size="15" transform="translate(799,145) rotate(0)">sighed</text><text font-size="15" transform="translate(500,419) rotate(0)">lifted</text><text font-size="15" transform="translate(376,167) rotate(0)">pile</text><text font-size="15" transform="translate(618,128) rotate(0)">sleet</text><text font-size="15" transform="translate(730,390) rotate(0)">clear</text><text font-size="15" transform="translate(175,306) rotate(0)">worst</text><text font-size="15" transform="translate(127,290) rotate(0)">turn</text><text font-size="15" transform="translate(112,199) rotate(0)">snows</text><text font-size="15" transform="translate(773,107) rotate(0)">around</text><text font-size="15" transform="translate(516,59) rotate(0)">sybil</text><text font-size="15" transform="translate(250,415) rotate(0)">resigned</text><text font-size="15" transform="translate(285,281) rotate(0)">eager</text><text font-size="15" transform="translate(104,327) rotate(0)">snatched</text><text font-size="15" transform="translate(606,437) rotate(0)">gripping</text><text font-size="15" transform="translate(561,174) rotate(0)">spear</text><text font-size="15" transform="translate(826,290) rotate(0)">mitten-wrapped</text><text font-size="15" transform="translate(492,455) rotate(0)">hands</text><text font-size="15" transform="translate(129,360) rotate(0)">plastic</text><text font-size="15" transform="translate(263,110) rotate(0)">end</text><text font-size="15" transform="translate(184,125) rotate(0)">packed</text><text font-size="15" transform="translate(151,147) rotate(0)">doorway</text><text font-size="15" transform="translate(75,286) rotate(0)">sheltered</text><text font-size="15" transform="translate(363,257) rotate(0)">low</text><text font-size="15" transform="translate(590,452) rotate(0)">overhang</text><text font-size="15" transform="translate(811,159) rotate(0)">help</text><text font-size="15" transform="translate(113,189) rotate(0)">chunks</text><text font-size="15" transform="translate(177,395) rotate(0)">chipped</text><text font-size="15" transform="translate(104,216) rotate(0)">away</text><text font-size="15" transform="translate(784,304) rotate(0)">stab</text><text font-size="15" transform="translate(260,164) rotate(0)">soon</text><text font-size="15" transform="translate(558,436) rotate(0)">crawl</text><text font-size="15" transform="translate(79,169) rotate(0)">manifested</text><text font-size="15" transform="translate(652,59) rotate(0)">sunshine</text><text font-size="15" transform="translate(494,469) rotate(0)">poured</text><text font-size="15" transform="translate(860,193) rotate(0)">opening</text><text font-size="15" transform="translate(255,73) rotate(0)">accompanied</text><text font-size="15" transform="translate(290,436) rotate(0)">whistle</text><text font-size="15" transform="translate(639,46) rotate(0)">bitter</text><text font-size="15" transform="translate(777,317) rotate(0)">tossing</text><text font-size="15" transform="translate(70,271) rotate(0)">tunnel</text><text font-size="15" transform="translate(427,469) rotate(0)">morning</text><text font-size="15" transform="translate(69,206) rotate(0)">damn</text><text font-size="15" transform="translate(126,375) rotate(0)">frigid</text><text font-size="15" transform="translate(518,44) rotate(0)">screamed</text><text font-size="15" transform="translate(90,345) rotate(0)">dunes</text><text font-size="15" transform="translate(755,380) rotate(0)">swirling</text><text font-size="15" transform="translate(322,458) rotate(0)">whatever</text><text font-size="15" transform="translate(682,426) rotate(0)">found</text><text font-size="15" transform="translate(788,342) rotate(0)">clouds</text><text font-size="15" transform="translate(458,53) rotate(0)">debris</text><text font-size="15" transform="translate(49,255) rotate(0)">reflective</text><text font-size="15" transform="translate(741,66) rotate(0)">slopes</text><text font-size="15" transform="translate(184,111) rotate(0)">greeted</text><text font-size="15" transform="translate(835,127) rotate(0)">direction</text><text font-size="15" transform="translate(281,57) rotate(0)">thankfully</text><text font-size="15" transform="translate(786,359) rotate(0)">snowing</text><text font-size="15" transform="translate(817,307) rotate(0)">tight</text><text font-size="15" transform="translate(851,263) rotate(0)">secured</text><text font-size="15" transform="translate(829,323) rotate(0)">howling</text><text font-size="15" transform="translate(190,410) rotate(0)">long</text><text font-size="15" transform="translate(50,326) rotate(0)">pole</text><text font-size="15" transform="translate(587,39) rotate(0)">carried</text><text font-size="15" transform="translate(864,242) rotate(0)">snowpack</text><text font-size="15" transform="translate(746,401) rotate(0)">people</text><text font-size="15" transform="translate(546,368) rotate(0)">used</text><text font-size="15" transform="translate(829,347) rotate(0)">mark</text><text font-size="15" transform="translate(700,50) rotate(0)">trekking</text><text font-size="15" transform="translate(245,429) rotate(0)">safety</text><text font-size="15" transform="translate(791,85) rotate(0)">ricardo</text><text font-size="15" transform="translate(850,280) rotate(0)">clean</text><text font-size="15" transform="translate(868,216) rotate(0)">panels</text><text font-size="15" transform="translate(76,359) rotate(0)">returned</text><text font-size="15" transform="translate(851,147) rotate(0)">became</text><text font-size="15" transform="translate(180,425) rotate(0)">mandatory</text><text font-size="15" transform="translate(180,91) rotate(0)">sweepers</text><text font-size="15" transform="translate(125,396) rotate(0)">pack</text><text font-size="15" transform="translate(56,191) rotate(0)">marking</text><text font-size="15" transform="translate(633,33) rotate(0)">poles</text><text font-size="15" transform="translate(268,448) rotate(0)">storms</text><text font-size="15" transform="translate(362,471) rotate(0)">hurtling</text><text font-size="15" transform="translate(116,122) rotate(0)">mountains</text><text font-size="15" transform="translate(411,39) rotate(0)">northeast</text><text font-size="15" transform="translate(228,209) rotate(0)">new</text><text font-size="15" transform="translate(861,303) rotate(0)">mexico</text><text font-size="15" transform="translate(542,472) rotate(0)">using</text><text font-size="15" transform="translate(667,436) rotate(0)">balance</text><text font-size="15" transform="translate(752,415) rotate(0)">crunched</text><text font-size="15" transform="translate(469,359) rotate(0)">hill</text><text font-size="15" transform="translate(805,385) rotate(0)">skyline</text><text font-size="15" transform="translate(540,87) rotate(0)">theory</text><text font-size="15" transform="translate(486,29) rotate(0)">nothing</text><text font-size="15" transform="translate(154,137) rotate(0)">shown</text><text font-size="15" transform="translate(874,164) rotate(0)">visible</text><text font-size="15" transform="translate(326,41) rotate(0)">jagged</text><text font-size="15" transform="translate(324,388) rotate(0)">cliffs</text></g></svg>